# xmcd
#
# Track frame offsets:
#	150
#	19035
#	38333
#	61471
#	81483
#	98790
#	114325
#	141123
#	154876
#	174305
#	196532
#	203438
#	224521
#	243397
#	266312
#	285061
#	303171
#	321109
#
# Disc length: 4754 seconds
#
# Revision: 0
# Processed by: cddbd v1.5.1PL0 Copyright (c) Steve Scherf et al.
# Submitted via: dBpowerAMP V4.0
#
DISCID=e2129012
DTITLE=Jean - Jacques Goldman - De Lux Collection
DYEAR=2004
DGENRE=Blues
TTITLE0=Encore Un Matin
TTITLE1=Comme Toi
TTITLE2=Envole Moi
TTITLE3=Pas L'Indifference
TTITLE4=Quand La Musique Est Bonne
TTITLE5=J'Irai Ou Tu Iras avec Celine Dion
TTITLE6=On N'A Pas Change
TTITLE7=Natacha
TTITLE8=Des Vies
TTITLE9=J'T'Aimerai Quand Meme
TTITLE10=Juste Un Petit Moment
TTITLE11=Minoritaire
TTITLE12=Bienvenue Sur Mon Boulevard
TTITLE13=Des Bouts De Moi
TTITLE14=Chanson D'Amour
TTITLE15=La Vie Par Procuration
TTITLE16=Il Changeait La Vie
TTITLE17=Peur De Rien Blues
EXTD=
EXTT0=
EXTT1=
EXTT2=
EXTT3=
EXTT4=
EXTT5=
EXTT6=
EXTT7=
EXTT8=
EXTT9=
EXTT10=
EXTT11=
EXTT12=
EXTT13=
EXTT14=
EXTT15=
EXTT16=
EXTT17=
PLAYORDER=
